PathFileType	4	(X/Y/Z)	C:/Users/beibeiliu/ov580/test_trc/User3\sequence.30_training_dense_right.trc
DataRate	CameraRate	NumFrames	NumMarkers	Units	OrigDataRate	OrigDataStartFrame	OrigNumFrames
120	120	22	19	mm	120	120	239
Frame#	Time	ThumbCMC			ThumbMCP			ThumbIP			ThumbTip			IndexMCP			IndexPIP			IndexTip			MiddleMCP			MiddlePIP			MiddleTip			RingMCP			RingPIP			RingTip			PinkyMCP			PinkyPIP			PinkyTip			BackHand1			BackHand2			BackHand3	
		X0	Y0	Z0	X1	Y1	Z1	X2	Y2	Z2	X3	Y3	Z3	X4	Y4	Z4	X5	Y5	Z5	X6	Y6	Z6	X7	Y7	Z7	X8	Y8	Z8	X9	Y9	Z9	X10	Y10	Z10	X11	Y11	Z11	X12	Y12	Z12	X13	Y13	Z13	X14	Y14	Z14	X15	Y15	Z15	X16	Y16	Z16	X17	Y17	Z17	X18	Y18	Z18	
119	0.991667	208.688	13.822	16.3409	203.184	29.6087	-10.0795	191.694	38.0509	-33.4308	176.805	44.1748	-51.7749	181.121	-4.12663	-52.541	165.053	0.214418	-76.8472	150.714	6.49276	-96.5721	151.26	-6.7475	-46.8645	128.667	15.9931	-45.0719	117.5	33.8778	-16.6884	143.157	-22.3921	-34.1903	116.255	-5.26803	-39.7194	104.126	16.7373	-33.019	136.126	-41.8439	-13.7955	118.127	-36.8449	-30.3735	102.734	-36.4677	-43.3409	183.291	-41.8248	4.73044	194.718	-44.125	28.8923	209.048	-18.7772	5.64912	
120	1	210.231	15.1309	17.6952	203.806	30.3159	-11.9299	190.412	37.7117	-34.7208	177.415	43.7246	-52.1369	175.295	-2.73675	-55.221	162.824	6.85021	-75.186	144.746	13.4267	-90.5829	152.402	-3.70526	-46.0595	129.285	13.9472	-44.2766	115.98	36.9106	-15.5247	143.047	-23.7172	-33.6623	119.531	-11.0903	-41.7966	100.048	10.4661	-38.3761	137.249	-42.1732	-14.2226	122.506	-40.3965	-27.1358	105.845	-41.5752	-44.3879	183.488	-41.1623	0.928133	197.849	-43.3856	32.6033	210.254	-20.4016	6.10594	
121	1.00833	209.834	15.1689	17.374	203.777	31.1405	-5.09376	190.558	37.572	-35.5884	178.486	44.5936	-52.4706	174.765	-0.671178	-51.1321	156.855	15.0318	-72.6254	135.107	25.2903	-84.0848	152.124	-8.68347	-41.9113	129.432	15.1303	-43.7047	114.241	37.2672	-12.1272	141.959	-26.3141	-32.989	118.371	-11.1935	-42.7877	100.29	10.9991	-44.9265	137.628	-42.4004	-16.371	124.932	-41.0379	-29.5247	107.157	-45.2348	-44.7154	183.43	-42.3626	2.72344	193.448	-44.3441	32.1991	206.188	-21.179	7.04034	
122	1.01667	210.208	15.5716	16.9206	204.093	31.7204	-6.8074	191.943	38.1974	-33.3421	177.905	41.0807	-52.9431	171.263	5.2638	-51.7723	150.207	20.8098	-66.3025	132.393	34.3651	-70.1343	153.587	-7.09676	-42.8263	128.285	13.7799	-42.6504	114.421	39.3174	-15.0651	141.649	-25.6705	-35.2018	120.341	-11.7954	-46.4449	98.0832	7.79115	-47.1348	138.944	-40.5928	-19.8592	125.86	-41.7107	-29.4531	104.316	-46.9144	-45.1238	181.892	-44.4352	2.19614	193.802	-45.5006	35.2495	211.411	-18.5324	9.16369	
123	1.025	209.925	15.9326	19.8757	203.865	31.5307	-9.28361	192.653	37.7181	-31.0649	180.488	47.1734	-53.5677	168.056	7.18791	-48.6637	146.994	23.9771	-58.2221	120.112	40.5016	-55.0998	150.482	-7.52755	-43.0184	126.374	15.9322	-42.8467	113.765	38.0186	-16.7549	142.157	-26.2715	-37.5651	121.214	-13.2052	-48.0519	99.231	4.18385	-47.0598	139.067	-44.7721	-14.5962	120.488	-45.1778	-30.7571	105.626	-49.128	-44.616	181.371	-44.3976	4.66033	195.491	-45.0346	33.6882	208.864	-17.787	9.49016	
124	1.03333	206.391	14.8153	18.4199	203.157	30.0166	-6.03587	191.672	39.7911	-33.3693	178.227	44.1316	-52.1109	162.622	9.21024	-47.195	140.883	26.1548	-51.6207	120.414	44.0747	-45.1944	149.681	-4.28565	-45.8551	125.439	11.0847	-44.9017	108.999	35.0788	-16.6502	141.828	-29.0222	-35.2279	119.833	-18.6653	-48.1203	98.1603	3.79167	-48.8434	136.495	-45.977	-16.44	120.452	-45.7763	-30.1227	106.26	-46.5609	-44.1879	181.192	-40.7414	3.73089	197.245	-41.1678	32.8677	208.718	-15.7326	7.84431	
125	1.04167	207.348	15.5232	18.6534	202.586	31.9578	-9.25577	191.326	40.1668	-32.66	179.303	45.72	-54.3378	163.638	8.49794	-44.7499	141.092	27.8466	-48.9906	117.795	45.6505	-35.9658	148.31	-10.0081	-44.037	123.267	15.1799	-46.6908	105.901	34.0497	-17.2885	144.477	-28.019	-37.5223	117.685	-19.9076	-49.8932	99.4565	-1.02157	-50.7753	140.037	-42.2193	-14.6935	125.249	-44.8748	-27.4608	107.626	-46.9925	-42.6043	181.083	-44.7494	3.68389	194.015	-42.8237	31.8622	206.749	-15.8533	6.48979	
126	1.05	205.674	15.3768	17.1797	202.104	30.9889	-7.52864	192.071	41.0828	-34.5967	178.967	45.8805	-51.0193	164.151	10.8139	-44.8389	136.013	28.5502	-45.3124	117.118	42.9454	-29.7668	146.689	-10.2738	-46.6182	122.069	10.2878	-48.3429	104.289	30.5037	-24.3175	142.396	-31.9792	-37.9182	122.144	-22.1991	-51.41	95.9156	-4.53219	-52.7115	138.609	-44.6633	-13.5957	121.043	-47.1753	-26.6862	106.625	-47.3234	-44.0187	182.585	-41.8218	2.45192	193.938	-45.0561	32.4714	207.446	-17.7547	4.70078	
127	1.05833	207.308	15.5235	16.4907	199.998	28.7428	-9.01957	191.274	41.6266	-31.9129	178.339	46.9834	-52.0468	160.983	8.52854	-43.8891	138.517	32.7976	-44.4531	120.319	47.2404	-24.2891	151.407	-9.87511	-47.8008	122.413	8.42659	-51.1183	103.892	32.1942	-28.9906	146.628	-30.238	-38.1919	120.242	-23.632	-54.0514	98.1579	-8.09267	-54.9546	136.495	-46.922	-16.7927	120.081	-46.5103	-30.2425	104.721	-49.884	-44.097	179.559	-42.7328	3.38304	196.03	-40.919	34.4415	205.512	-18.2826	9.66192	
128	1.06667	210.073	17.834	17.8496	202.087	31.4937	-5.10541	190.335	42.2371	-31.7283	177.253	50.2459	-53.9233	163.503	11.5733	-44.8046	140.567	28.5163	-44.3693	122.879	44.4265	-24.8626	154.143	-12.9663	-46.3674	126.265	7.87483	-57.1244	104.258	31.7535	-36.0195	147.593	-31.1441	-40.1092	124.067	-24.4793	-56.124	100.271	-5.86718	-59.2665	136.014	-46.9304	-15.2609	124.74	-46.5244	-28.1791	108.954	-47.1971	-42.8974	178.868	-42.0708	3.07898	194.475	-45.0606	32.5072	206.2	-18.1527	10.1504	
129	1.075	206.539	15.5383	16.1583	201.183	31.9814	-8.15239	191.178	45.8638	-32.5368	176.895	53.3575	-50.0863	160.396	9.88398	-45.432	141.977	31.1983	-45.3908	123.426	45.2729	-25.5797	153.614	-13.2177	-51.3124	126.44	2.82491	-60.157	104.867	31.3648	-45.5303	149.193	-32.2399	-38.0665	128.674	-28.4395	-54.9096	101.226	-9.47967	-61.7585	140.605	-43.2028	-13.5154	119.709	-48.7627	-28.3669	104.159	-51.5554	-42.2028	180.772	-41.5484	4.47113	195.583	-41.4047	34.2293	207.975	-18.0349	7.6371	
130	1.08333	207.394	15.5755	18.3629	200.767	36.0036	-9.51655	186.798	45.727	-32.6117	171.795	53.0612	-47.8767	164.082	8.69239	-45.3189	143.396	31.0475	-46.9843	122.42	43.4753	-29.0332	151.717	-17.5758	-50.4972	128.23	0.693981	-63.0698	105.587	23.7982	-55.5536	148.435	-33.8126	-38.0519	128.353	-27.2551	-57.4356	103.369	-10.3801	-65.8683	139.852	-43.6693	-16.6283	123.773	-49.2029	-25.7835	107.344	-54.0773	-44.1645	182.981	-40.5699	3.20984	192.246	-44.635	34.3871	205.848	-18.3573	7.77779	
131	1.09167	205.394	16.1004	15.753	198.591	36.8988	-3.56671	183.905	51.0378	-30.9676	168.955	56.396	-44.9667	168.594	9.13305	-46.3976	143.462	27.4383	-51.9928	125.849	46.3452	-34.7612	157.07	-18.9969	-47.6075	129.943	-2.84124	-66.4801	102.156	17.7398	-62.4057	150.135	-33.8337	-35.955	130.22	-28.4894	-57.5535	103.444	-12.2203	-65.2962	140.859	-45.5588	-14.9557	122.502	-48.712	-30.0687	107.089	-53.8396	-42.7659	183.429	-39.4075	5.68623	194.011	-44.6841	29.3547	205.973	-18.7796	5.58468	
132	1.1	205.878	21.864	19.9318	193.135	40.7337	-2.70799	176.117	52.5004	-29.2373	157.286	53.4955	-41.4535	165.649	3.16845	-45.631	140.607	20.5951	-55.4137	120.649	45.7374	-41.0368	161.195	-18.1317	-50.5767	132.641	-7.94721	-70.1162	106.19	10.6159	-70.318	150.758	-33.5162	-38.0468	133.016	-29.2681	-57.7188	106.783	-11.0695	-66.4161	141.89	-44.787	-12.9437	122.437	-46.7885	-32.8618	105.891	-44.6892	-44.7637	183.392	-42.0323	5.85048	193.036	-44.3176	34.342	209.184	-16.821	9.7578	
133	1.10833	198.916	26.0556	20.3504	177.122	39.5222	-3.63494	159.971	49.0251	-21.9915	139.151	48.9483	-36.7818	167.23	6.13214	-51.3919	141.047	19.6142	-62.5097	115.671	35.7991	-50.1781	159.93	-21.0383	-52.2333	141.787	-10.6577	-73.7642	108.144	5.24239	-76.4229	152.753	-33.9833	-38.1471	131.999	-31.4458	-58.8291	105.478	-15.5312	-63.2163	139.719	-45.6109	-17.6403	118.997	-44.7581	-34.8446	104.475	-35.6444	-44.7039	181.835	-37.1674	3.88313	195.264	-38.3644	28.0465	206.463	-10.655	7.91394	
134	1.11667	189.165	25.1816	21.2767	164.458	39.5975	1.71159	141.601	49.8425	-21.8932	120.535	41.3025	-35.4015	169.116	3.73454	-51.2721	146.709	16.9764	-70.4088	117.941	33.5305	-61.3729	167.985	-18.1055	-55.1035	145.203	-14.3537	-79.275	108.959	3.00487	-80.094	157.535	-30.5541	-42.1646	136.275	-28.7954	-62.6392	107.358	-6.64927	-62.1452	143.162	-40.5443	-19.7508	120.355	-35.0769	-38.9379	101.155	-22.8527	-43.3277	185.263	-33.784	3.90578	193.913	-35.336	32.7013	204.172	-10.2739	10.1965	
135	1.125	182.101	29.2625	19.1672	152.516	41.9887	1.62907	127.429	43.8718	-19.6421	109.328	29.751	-30.2198	173.212	8.94248	-52.0831	147.925	12.6647	-73.2694	120.074	26.9795	-68.7748	169.821	-19.4764	-56.3441	150.947	-16.5681	-81.66	118.703	-1.41544	-85.1616	157.572	-29.6773	-46.3518	133.645	-25.5267	-64.9165	109.53	-10.0332	-58.1897	141.126	-37.5117	-23.3633	115.776	-31.6321	-38.4653	96.6346	-14.9676	-36.1446	181.184	-31.6836	0.116765	194.529	-33.5123	30.7828	200.1	-4.50242	6.48168	
136	1.13333	175.481	31.1874	23.363	143.672	35.1972	3.29148	119.287	33.5365	-14.7263	101.996	18.6194	-26.8919	171.866	7.90196	-49.8888	152.691	18.3545	-76.2912	119.791	27.9883	-71.4765	172.508	-16.7616	-54.5061	158.698	-14.1212	-82.0667	122.438	-3.43212	-86.2023	158.25	-29.646	-42.8168	136.112	-26.5811	-63.5595	107.981	-8.31937	-54.4884	141.34	-36.9795	-25.5575	114.677	-29.5398	-36.1424	97.694	-9.7826	-30.1931	182.367	-30.1959	-0.507899	190.466	-32.7219	32.185	199.308	-2.17874	7.74715	
137	1.14167	167.998	33.0671	25.0633	135.229	34.0283	3.64738	110.704	29.6099	-16.9991	98.5022	9.70197	-23.384	171.088	14.3099	-53.0401	152.043	22.8724	-75.7508	122.224	31.5454	-76.3339	175.312	-11.8061	-53.4693	159.417	-9.36007	-85.6141	125.47	-0.459771	-88.7013	160.374	-27.3965	-46.4776	134.937	-22.5915	-66.2712	109.064	-6.76093	-52.6275	140.764	-35.1517	-29.1673	116.392	-29.7368	-36.9208	95.9265	-13.4337	-21.4756	182.784	-29.85	2.17275	193.86	-25.9915	29.0701	196.711	5.75103	9.11998	
138	1.15	160.043	32.9704	27.0092	127.717	32.3321	6.85422	104.341	23.9987	-14.8222	92.3432	1.9371	-27.2893	169.351	21.1983	-50.8444	150.189	31.1465	-75.8776	121.805	32.6173	-79.1454	179.148	-4.40606	-53.5577	163.259	-3.08312	-84.5867	131.423	-3.01867	-90.6691	163.129	-21.6545	-43.7992	137.817	-23.7655	-66.2094	110.65	-9.77759	-53.4628	145.688	-35.0036	-30.7477	120.288	-30.6246	-38.6178	98.7436	-17.6621	-21.3405	186.142	-21.6636	-0.588616	193.462	-25.361	29.1282	192.799	9.43642	15.0457	
139	1.15833	152.451	27.6262	31.3654	123.194	23.1582	7.57352	100.197	16.701	-13.868	94.7502	-3.22602	-27.0416	166.239	34.9901	-45.1956	148.153	41.9295	-71.6999	123.84	40.4799	-80.6852	181.019	7.74027	-49.9039	168.119	7.59824	-83.0588	135.88	2.15039	-92.4979	166.997	-12.1164	-44.3575	146.387	-18.2308	-66.9051	113.63	-15.1313	-51.3427	152.965	-35.2079	-32.9531	129.662	-33.3131	-41.8275	106.086	-25.2407	-21.3419	187.891	-13.7742	0.833628	196.578	-18.3074	30.9456	189.126	14.8	17.7886	
140	1.16667	144.247	23.5364	32.796	114.335	17.965	11.4605	98.295	8.57215	-10.3384	94.4996	-7.63683	-32.0089	159.504	41.7135	-35.2076	145.7	49.1783	-66.2846	122.249	50.3048	-81.4156	178.888	19.8132	-42.7828	169.771	23.0196	-78.631	140.339	8.48869	-93.3291	172.923	-6.63347	-45.7941	150.289	-9.88906	-67.3401	120.531	-21.0924	-50.0849	165.056	-28.4929	-31.3213	140.802	-32.4085	-44.4807	115.905	-31.4944	-20.2257	190.687	-9.99114	5.88154	196.327	-10.9056	31.7052	181.674	24.2214	23.1535	
